<svg width="24" height="24" viewBox="0 0 24 24" fill="none" xmlns="http://www.w3.org/2000/svg">
<path d="M10.4497 18.5434C10.5903 18.6841 10.7811 18.7631 10.98 18.7631C11.1789 18.7631 11.3697 18.6841 11.5103 18.5434C11.651 18.4028 11.73 18.212 11.73 18.0131C11.73 17.8142 11.651 17.6234 11.5103 17.4827L6.78684 12.7593L18.9774 12.7593C19.078 12.7628 19.1784 12.7461 19.2724 12.71C19.3664 12.6739 19.4522 12.6193 19.5247 12.5493C19.5972 12.4794 19.6548 12.3956 19.6942 12.3029C19.7335 12.2101 19.7538 12.1105 19.7538 12.0097C19.7538 11.909 19.7335 11.8093 19.6942 11.7166C19.6548 11.6239 19.5972 11.5401 19.5247 11.4701C19.4522 11.4002 19.3664 11.3455 19.2724 11.3095C19.1784 11.2734 19.078 11.2567 18.9774 11.2602L6.78684 11.2602L11.5103 6.53673C11.651 6.39608 11.73 6.20532 11.73 6.0064C11.73 5.80749 11.651 5.61672 11.5103 5.47607C11.3697 5.33542 11.1789 5.2564 10.98 5.2564C10.7811 5.2564 10.5903 5.33542 10.4497 5.47607L4.44632 11.4794C4.37718 11.5511 4.32202 11.635 4.28368 11.7269C4.23176 11.8558 4.21617 11.9965 4.23861 12.1336C4.26106 12.2707 4.32067 12.3991 4.41096 12.5047L10.4497 18.5434Z" fill="#071B31"/>
</svg>
