<svg width="12" height="12" viewBox="0 0 12 12" fill="none" xmlns="http://www.w3.org/2000/svg">
<path d="M2.17871 0C1.9798 0 1.78903 0.0790175 1.64838 0.21967C1.50773 0.360322 1.42871 0.551088 1.42871 0.75C1.42871 0.948912 1.50773 1.13968 1.64838 1.28033C1.78903 1.42098 1.9798 1.5 2.17871 1.5H8.85871L0.238708 10.12C0.165022 10.1887 0.105919 10.2715 0.0649275 10.3635C0.0239355 10.4555 0.0018935 10.5548 0.00011672 10.6555C-0.00166006 10.7562 0.0168648 10.8562 0.0545858 10.9496C0.0923068 11.043 0.148451 11.1278 0.21967 11.199C0.290889 11.2703 0.375723 11.3264 0.469111 11.3641C0.562499 11.4018 0.662528 11.4204 0.763231 11.4186C0.863934 11.4168 0.963247 11.3948 1.05525 11.3538C1.14725 11.3128 1.23005 11.2537 1.29871 11.18L9.91871 2.56V9.24C9.91871 9.43891 9.99773 9.62968 10.1384 9.77033C10.279 9.91098 10.4698 9.99 10.6687 9.99C10.8676 9.99 11.0584 9.91098 11.199 9.77033C11.3397 9.62968 11.4187 9.43891 11.4187 9.24V0.75C11.4169 0.650442 11.3966 0.55209 11.3587 0.46C11.3043 0.332143 11.2158 0.221655 11.103 0.140553C10.9902 0.0594506 10.8572 0.0108378 10.7187 0H2.17871Z" fill="#071B31"/>
</svg>
