<svg width="22" height="22" viewBox="0 0 22 22" fill="none" xmlns="http://www.w3.org/2000/svg">
<path d="M15.716 7.732C15.713 4.782 15.669 3.254 14.81 2.208C14.6442 2.0057 14.459 1.82014 14.257 1.654C13.152 0.75 11.512 0.75 8.232 0.75C4.952 0.75 3.312 0.75 2.208 1.655C2.006 1.82114 1.82078 2.0067 1.655 2.209C0.75 3.31 0.75 4.95 0.75 8.23C0.75 11.51 0.75 13.15 1.656 14.253C1.82267 14.4557 2.007 14.64 2.209 14.806C3.255 15.666 4.784 15.71 7.734 15.712" stroke="#9CA4AD" stroke-width="1.5" stroke-linecap="round" stroke-linejoin="round"/>
<path d="M12.7804 7.77542L15.7464 7.73242M12.7664 20.7524L15.7324 20.7094M20.7244 12.7724L20.6964 15.7324M7.76237 12.7864L7.73438 15.7464M10.2394 7.77542C9.40738 7.92442 8.06937 8.07742 7.76237 9.79942M18.2474 20.7094C19.0824 20.5724 20.4214 20.4394 20.7554 18.7234M18.2474 7.77542C19.0794 7.92442 20.4174 8.07742 20.7244 9.79942M10.2524 20.7074C9.41937 20.5594 8.08237 20.4064 7.77437 18.6844" stroke="#9CA4AD" stroke-width="1.5" stroke-linecap="round" stroke-linejoin="round"/>
</svg>
