<svg width="22" height="22" viewBox="0 0 22 22" fill="none" xmlns="http://www.w3.org/2000/svg">
<path fill-rule="evenodd" clip-rule="evenodd" d="M11.2364 21.9372C9.07734 21.9372 8.074 21.6207 6.32997 20.3545C5.22682 21.7789 1.73352 22.8922 1.58118 20.9876C1.58118 19.5578 1.26599 18.3496 0.908784 17.0306C0.483284 15.4056 0 13.596 0 10.9739C0 4.71139 5.11651 0 11.1786 0C17.2459 0 21.9999 4.94352 21.9999 11.0319C22.0097 13.9108 20.8819 16.6759 18.8639 18.7204C16.8459 20.765 14.1027 21.9219 11.2364 21.9372ZM11.3257 5.41308C8.37342 5.26008 6.07257 7.31241 5.56302 10.5307C5.14277 13.195 5.88871 16.4397 6.52434 16.6086C6.82902 16.6824 7.59597 16.0599 8.074 15.5798C8.86445 16.1282 9.78492 16.4576 10.7426 16.5347C12.213 16.6057 13.6526 16.0945 14.7518 15.1109C15.851 14.1273 16.522 12.7499 16.6208 11.2746C16.6782 9.79631 16.1556 8.35443 15.1653 7.2592C14.1751 6.16398 12.7963 5.50295 11.3257 5.41836V5.41308Z" fill="#071B31"/>
</svg>
