<svg width="10" height="10" viewBox="0 0 10 10" fill="none" xmlns="http://www.w3.org/2000/svg">
<path d="M9.99998 5C10.0011 5.14658 9.95657 5.28987 9.87254 5.40995C9.7885 5.53003 9.66916 5.62094 9.53109 5.67005L6.69809 6.70058L5.66832 9.53399C5.61757 9.67077 5.52618 9.78874 5.40644 9.87204C5.28669 9.95535 5.14433 10 4.99848 10C4.85262 10 4.71026 9.95535 4.59052 9.87204C4.47078 9.78874 4.37939 9.67077 4.32863 9.53399L3.29886 6.70014L0.465865 5.67005C0.329126 5.61928 0.211195 5.52786 0.127917 5.40808C0.0446378 5.2883 0 5.1459 0 5C0 4.8541 0.0446378 4.7117 0.127917 4.59192C0.211195 4.47214 0.329126 4.38072 0.465865 4.32995L3.29886 3.29986L4.32863 0.466007C4.37939 0.329226 4.47078 0.21126 4.59052 0.127956C4.71026 0.0446514 4.85262 0 4.99848 0C5.14433 0 5.28669 0.0446514 5.40644 0.127956C5.52618 0.21126 5.61757 0.329226 5.66832 0.466007L6.69854 3.29986L9.53109 4.32995C9.66916 4.37906 9.7885 4.46997 9.87254 4.59005C9.95657 4.71013 10.0011 4.85342 9.99998 5Z" fill="#071B31" fill-opacity="0.24"/>
</svg>
