<svg width="24" height="24" viewBox="0 0 24 24" fill="none" xmlns="http://www.w3.org/2000/svg">
<path d="M21.2097 3.15891C21.2097 3.15891 23.1523 2.37977 22.9904 4.27197C22.9365 5.05112 22.4508 7.77812 22.0731 10.7278L20.778 19.4653C20.778 19.4653 20.6701 20.7453 19.6987 20.9679C18.7274 21.1905 17.2704 20.1888 17.0006 19.9662C16.7847 19.7992 12.9534 17.2948 11.6043 16.0705C11.2266 15.7365 10.7949 15.0687 11.6583 14.2895L17.3244 8.72425C17.9719 8.0564 18.6195 6.49812 15.9213 8.39033L8.36655 13.6774C8.36655 13.6774 7.50315 14.2339 5.8843 13.733L2.37671 12.62C2.37671 12.62 1.0816 11.7852 3.29408 10.9503C8.69035 8.33463 15.3278 5.66328 21.2097 3.15891Z" fill="#071B31"/>
</svg>
