<svg width="21" height="18" viewBox="0 0 21 18" fill="none" xmlns="http://www.w3.org/2000/svg">
<path d="M19.2097 0.158909C19.2097 0.158909 21.1523 -0.620233 20.9904 1.27197C20.9365 2.05112 20.4508 4.77812 20.0731 7.72775L18.778 16.4653C18.778 16.4653 18.6701 17.7453 17.6987 17.9679C16.7274 18.1905 15.2704 17.1888 15.0006 16.9662C14.7847 16.7992 10.9534 14.2948 9.60431 13.0705C9.22655 12.7365 8.79486 12.0687 9.65826 11.2895L15.3244 5.72425C15.9719 5.0564 16.6195 3.49812 13.9213 5.39033L6.36655 10.6774C6.36655 10.6774 5.50315 11.2339 3.8843 10.733L0.376711 9.61997C0.376711 9.61997 -0.918395 8.78518 1.29408 7.95034C6.69035 5.33463 13.3278 2.66328 19.2097 0.158909Z" fill="white"/>
</svg>
