<svg width="28" height="28" viewBox="0 0 28 28" fill="none" xmlns="http://www.w3.org/2000/svg">
<path d="M7.00065 23.333H21.0007V25.6663H7.00065V23.333ZM7.00065 2.33301H21.0007V4.66634H7.00065V2.33301ZM21.0007 4.66634H23.334V6.99967H21.0007V4.66634ZM4.66732 4.66634H7.00065V6.99967H4.66732V4.66634ZM4.66732 20.9997H7.00065V23.333H4.66732V20.9997ZM21.0007 20.9997H23.334V23.333H21.0007V20.9997ZM2.33398 6.99967H4.66732V20.9997H2.33398V6.99967ZM23.334 6.99967H25.6673V20.9997H23.334V6.99967ZM8.16732 15.1663H10.5007V17.4997H8.16732V15.1663ZM10.5007 17.4997H17.5007V19.833H10.5007V17.4997ZM17.5007 15.1663H19.834V17.4997H17.5007V15.1663ZM9.33398 9.33301H11.6673V11.6663H9.33398V9.33301ZM16.334 9.33301H18.6673V11.6663H16.334V9.33301Z" fill="#3683F6"/>
</svg>
